<?xml version="1.0" encoding="UTF-8"?>
<svg width="10px" height="12px" viewBox="0 0 10 12" version="1.1" xmlns="http://www.w3.org/2000/svg" xmlns:xlink="http://www.w3.org/1999/xlink">
    <!-- Generator: sketchtool 64 (101010) - https://sketch.com -->
    <title>A3CE8571-4DCA-460A-ACAD-588F8101793E</title>
    <desc>Created with sketchtool.</desc>
    <g id="Admin" stroke="none" stroke-width="1" fill="none" fill-rule="evenodd">
        <g id="Invite-New-Students-Email" transform="translate(-417.000000, -204.000000)" fill-rule="nonzero">
            <g id="Group-22" transform="translate(52.000000, 62.000000)">
                <g id="Group-3" transform="translate(30.000000, 103.000000)">
                    <g id="arrow-right-outline" transform="translate(327.000000, 33.000000)">
                        <rect id="Rectangle" fill="#000000" opacity="0" transform="translate(12.000000, 12.000000) rotate(180.000000) translate(-12.000000, -12.000000) " x="-1.77635684e-15" y="1.77635684e-15" width="24" height="24"></rect>
                        <path d="M10.46,18.0000015 C10.145968,17.9981519 9.83586721,17.9299979 9.55,17.8 C8.91856215,17.5216708 8.50803263,16.9000119 8.5,16.21 L8.5,7.79 C8.50803263,7.09998814 8.91856215,6.47832916 9.55,6.2 C10.2758142,5.85716617 11.1335688,5.95807848 11.76,6.46 L16.86,10.67 C17.2651421,10.9925358 17.5011799,11.4821492 17.5011799,12 C17.5011799,12.5178508 17.2651421,13.0074642 16.86,13.33 L11.76,17.54 C11.3923799,17.8381259 10.933311,18.0005657 10.46,18.0000015 Z M10.46,8 L10.46,15.9 L15.32,12 L10.46,8 Z" id="Shape" fill="#DBDBDB"></path>
                    </g>
                </g>
            </g>
        </g>
    </g>
</svg>