<?xml version="1.0" encoding="UTF-8"?>
<svg width="15px" height="15px" viewBox="0 0 15 15" version="1.1" xmlns="http://www.w3.org/2000/svg" xmlns:xlink="http://www.w3.org/1999/xlink">
    <!-- Generator: Sketch 61.2 (89653) - https://sketch.com -->
    <title>cog-1</title>
    <desc>Created with Sketch.</desc>
    <g id="Symbols" stroke="none" stroke-width="1" fill="none" fill-rule="evenodd">
        <g id="nav/user_dropdown" transform="translate(-26.000000, -88.000000)" fill="#373737" fill-rule="nonzero">
            <g id="Group-25">
                <g id="Group-23" transform="translate(26.000000, 86.000000)">
                    <g id="cog-1" transform="translate(0.000000, 2.000000)">
                        <path d="M14.013125,6.101875 L13.221875,5.82125 C12.9927452,5.73979721 12.8088918,5.5650187 12.7159548,5.34030171 C12.6230177,5.11558473 12.6297117,4.86200082 12.734375,4.6425 L12.734375,4.6425 L13.094375,3.884375 C13.3634492,3.31709023 13.2466745,2.64188396 12.8027078,2.19791722 C12.358741,1.75395049 11.6835348,1.63717582 11.11625,1.90625 L10.358125,2.266875 C10.1384983,2.3710637 9.88502037,2.37736452 9.66048834,2.28421649 C9.43595631,2.19106845 9.26137665,2.00718619 9.18,1.778125 L8.89875,0.9875 C8.68788687,0.396098531 8.12786858,0.00122180371 7.5,0.00122180371 C6.87213142,0.00122180371 6.31211313,0.396098531 6.10125,0.9875 L5.82,1.77875 C5.73849295,2.00769881 5.56385919,2.19143315 5.33934246,2.28445572 C5.11482574,2.3774783 4.86142003,2.37109083 4.641875,2.266875 L3.88375,1.90625 C3.31646523,1.63717582 2.64125896,1.75395049 2.19729222,2.19791722 C1.75332549,2.64188396 1.63655082,3.31709023 1.905625,3.884375 L2.265625,4.6425 C2.37008361,4.862027 2.3766731,5.11552654 2.28376067,5.34018403 C2.19084825,5.56484151 2.00712839,5.73963411 1.778125,5.82125 L0.986875,6.1025 C0.395321187,6.31304782 0.000236576131,6.87303122 0.000236576131,7.5009375 C0.000236576131,8.12884378 0.395321187,8.68882718 0.986875,8.899375 L1.778125,9.180625 C2.00708765,9.26209954 2.19080742,9.43677327 2.28372913,9.66133407 C2.37665083,9.88589487 2.3700724,10.1393127 2.265625,10.35875 L1.905625,11.116875 C1.63655082,11.6841598 1.75332549,12.359366 2.19729222,12.8033328 C2.64125896,13.2472995 3.31646523,13.3640742 3.88375,13.095 L4.641875,12.735 C4.86136789,12.6303746 5.11494254,12.6237782 5.33957829,12.7168501 C5.56421403,12.809922 5.73881944,12.9939235 5.82,13.223125 L6.10125,14.01375 C6.31211313,14.6051515 6.87213142,15.0000282 7.5,15.0000282 C8.12786858,15.0000282 8.68788687,14.6051515 8.89875,14.01375 L9.18,13.2225 C9.26147454,12.9935374 9.43614827,12.8098176 9.66070907,12.7168959 C9.88526987,12.6239742 10.1386877,12.6305526 10.358125,12.735 L11.11625,13.095 C11.6835348,13.3640742 12.358741,13.2472995 12.8027078,12.8033328 C13.2466745,12.359366 13.3634492,11.6841598 13.094375,11.116875 L12.734375,10.35875 C12.6299276,10.1393127 12.6233492,9.88589487 12.7162709,9.66133407 C12.8091926,9.43677327 12.9929124,9.26209954 13.221875,9.180625 L14.013125,8.89875 C14.6046788,8.68820218 14.9997634,8.12821878 14.9997634,7.5003125 C14.9997634,6.87240622 14.6046788,6.31242282 14.013125,6.101875 Z M7.5,10.490625 C6.29449118,10.4731367 5.20992613,9.75416361 4.724375,8.650625 C4.09138002,7.11786245 4.81824305,5.36192909 6.349375,4.725 C7.88207317,4.1120461 9.62395173,4.8330912 10.275,6.35 C10.907995,7.88276255 10.1811319,9.63869591 8.65,10.275625 C8.28551003,10.4255428 7.89403372,10.4987319 7.5,10.490625 Z" id="Shape"></path>
                    </g>
                </g>
            </g>
        </g>
    </g>
</svg>