<?xml version="1.0" encoding="UTF-8"?>
<svg width="12px" height="10px" viewBox="0 0 12 10" version="1.1" xmlns="http://www.w3.org/2000/svg" xmlns:xlink="http://www.w3.org/1999/xlink">
    <!-- Generator: Sketch 61.2 (89653) - https://sketch.com -->
    <title>external</title>
    <desc>Created with Sketch.</desc>
    <g id="Admin" stroke="none" stroke-width="1" fill="none" fill-rule="evenodd">
        <g id="Configure-School" transform="translate(-835.000000, -420.000000)" fill="#0037F6" fill-rule="nonzero">
            <g id="Group" transform="translate(335.000000, 147.000000)">
                <g id="Group-8" transform="translate(30.000000, 217.000000)">
                    <g id="Group-21">
                        <g id="Group-15" transform="translate(0.000000, 40.000000)">
                            <g id="Group-4">
                                <g id="Group-5" transform="translate(343.000000, 12.000000)">
                                    <g id="external" transform="translate(127.000000, 4.000000)">
                                        <path d="M9,10 L2,10 C0.9,10 0,9.1 0,8 L0,3 C0,1.9 0.9,1 2,1 L7.5,1 C7.8,1 8,1.2 8,1.5 C8,1.8 7.8,2 7.5,2 L2,2 C1.45,2 1,2.45 1,3 L1,8 C1,8.55 1.45,9 2,9 L9,9 C9.55,9 10,8.55 10,8 L10,4.5 C10,4.2 10.2,4 10.5,4 C10.8,4 11,4.2 11,4.5 L11,8 C11,9.1 10.1,10 9,10 Z" id="Path"></path>
                                        <path d="M7.5,5 C7.35,5 7.25,4.95 7.15,4.85 C6.95,4.65 6.95,4.35 7.15,4.15 L11.15,0.15 C11.35,-0.05 11.65,-0.05 11.85,0.15 C12.05,0.35 12.05,0.65 11.85,0.85 L7.85,4.85 C7.75,4.95 7.65,5 7.5,5 Z" id="Path"></path>
                                        <path d="M11.5,1 L9.5,1 C9.2,1 9,0.8 9,0.5 C9,0.2 9.2,0 9.5,0 L11.5,0 C11.8,0 12,0.2 12,0.5 C12,0.8 11.8,1 11.5,1 Z" id="Path"></path>
                                        <path d="M11.5,3 C11.2,3 11,2.8 11,2.5 L11,0.5 C11,0.2 11.2,0 11.5,0 C11.8,0 12,0.2 12,0.5 L12,2.5 C12,2.8 11.8,3 11.5,3 Z" id="Path"></path>
                                    </g>
                                </g>
                            </g>
                        </g>
                    </g>
                </g>
            </g>
        </g>
    </g>
</svg>