<?xml version="1.0" encoding="UTF-8"?>
<svg width="18px" height="24px" viewBox="0 0 18 24" version="1.1" xmlns="http://www.w3.org/2000/svg" xmlns:xlink="http://www.w3.org/1999/xlink">
    <!-- Generator: Sketch 61.2 (89653) - https://sketch.com -->
    <title>file-csv</title>
    <desc>Created with Sketch.</desc>
    <g id="Admin" stroke="none" stroke-width="1" fill="none" fill-rule="evenodd">
        <g id="Invite-New-Students-Step-1" transform="translate(-102.000000, -183.000000)" fill="#0037F6" fill-rule="nonzero">
            <g id="Group-22" transform="translate(52.000000, 62.000000)">
                <g id="Group-14" transform="translate(30.000000, 103.000000)">
                    <g id="file-csv" transform="translate(20.000000, 18.000000)">
                        <path d="M10.5,6.375 L10.5,0 L1.125,0 C0.5015625,0 0,0.5015625 0,1.125 L0,22.875 C0,23.4984375 0.5015625,24 1.125,24 L16.875,24 C17.4984375,24 18,23.4984375 18,22.875 L18,7.5 L11.625,7.5 C11.00625,7.5 10.5,6.99375 10.5,6.375 Z M6,13.125 C6,13.3321875 5.8321875,13.5 5.625,13.5 L5.25,13.5 C4.835625,13.5 4.5,13.835625 4.5,14.25 L4.5,15.75 C4.5,16.164375 4.835625,16.5 5.25,16.5 L5.625,16.5 C5.8321875,16.5 6,16.6678125 6,16.875 L6,17.625 C6,17.8321875 5.8321875,18 5.625,18 L5.25,18 C4.00734375,18 3,16.9926562 3,15.75 L3,14.25 C3,13.0073438 4.00734375,12 5.25,12 L5.625,12 C5.8321875,12 6,12.1678125 6,12.375 L6,13.125 Z M8.07515625,18 L7.5,18 C7.2928125,18 7.125,17.8321875 7.125,17.625 L7.125,16.875 C7.125,16.6678125 7.2928125,16.5 7.5,16.5 L8.07515625,16.5 C8.3540625,16.5 8.563125,16.3359375 8.563125,16.1896875 C8.563125,16.12875 8.52796875,16.065 8.46375,16.0096875 L7.43765625,15.1298437 C7.040625,14.7914062 6.8128125,14.3104687 6.8128125,13.8107812 C6.8128125,12.8123438 7.704375,12.0004687 8.80078125,12.0004687 L9.375,12.0004687 C9.5821875,12.0004687 9.75,12.1682812 9.75,12.3754687 L9.75,13.1254687 C9.75,13.3326563 9.5821875,13.5004687 9.375,13.5004687 L8.79984375,13.5004687 C8.5209375,13.5004687 8.311875,13.6645312 8.311875,13.8107812 C8.311875,13.8717188 8.34703125,13.9354688 8.41125,13.9907812 L9.43734375,14.870625 C9.834375,15.2090625 10.0621877,15.69 10.0621877,16.1896875 C10.0626562,17.1876562 9.1715625,18 8.07515625,18 L8.07515625,18 Z M12,12.375 L12,13.35 C12,14.3001563 12.2671875,15.2329688 12.75,16.01625 C13.2328125,15.2334375 13.5,14.3001563 13.5,13.35 L13.5,12.375 C13.5,12.1678125 13.6678125,12 13.875,12 L14.625,12 C14.8321875,12 15,12.1678125 15,12.375 L15,13.35 C15,15.013125 14.39625,16.5792187 13.299375,17.7604688 C13.1578125,17.9128125 12.9585938,18 12.75,18 C12.5414062,18 12.3421875,17.9128125 12.200625,17.7604688 C11.10375,16.5792187 10.5,15.013125 10.5,13.35 L10.5,12.375 C10.5,12.1678125 10.6678125,12 10.875,12 L11.625,12 C11.8321875,12 12,12.1678125 12,12.375 L12,12.375 Z M17.671875,4.921875 L13.0828125,0.328125 C12.871875,0.1171875 12.5859375,0 12.2859375,0 L12,0 L12,6 L18,6 L18,5.7140625 C18,5.41875 17.8828125,5.1328125 17.671875,4.921875 Z" id="Shape"></path>
                    </g>
                </g>
            </g>
        </g>
    </g>
</svg>