<?xml version="1.0" encoding="UTF-8"?>
<svg width="20px" height="12px" viewBox="0 0 20 12" version="1.1" xmlns="http://www.w3.org/2000/svg" xmlns:xlink="http://www.w3.org/1999/xlink">
    <!-- Generator: Sketch 61.2 (89653) - https://sketch.com -->
    <title>graduation-cap</title>
    <desc>Created with Sketch.</desc>
    <g id="Symbols" stroke="none" stroke-width="1" fill="none" fill-rule="evenodd">
        <g id="nav/main/students/on" transform="translate(-11.000000, -15.000000)" fill="#FFFFFF" fill-rule="nonzero">
            <g id="Group-5" transform="translate(11.000000, 15.000000)">
                <g id="graduation-cap">
                    <path d="M19.448125,2.7875 L10.73125,0.109375 C10.25625,-0.0365625 9.74375,-0.0365625 9.2690625,0.109375 L0.551875,2.7875 C-0.18375,3.0134375 -0.18375,3.98625 0.551875,4.2121875 L2.0715625,4.6790625 C1.738125,5.09125 1.533125,5.5940625 1.5128125,6.1446875 C1.211875,6.3171875 1,6.6284375 1,7 C1,7.336875 1.1775,7.6203125 1.433125,7.8015625 L0.6353125,11.3915625 C0.5659375,11.70375 0.8034375,12 1.123125,12 L2.8765625,12 C3.1965625,12 3.4340625,11.70375 3.3646875,11.3915625 L2.566875,7.8015625 C2.8225,7.6203125 3,7.336875 3,7 C3,6.6384375 2.7978125,6.3359375 2.510625,6.1603125 C2.534375,5.6909375 2.774375,5.2759375 3.1571875,5.0128125 L9.26875,6.890625 C9.551875,6.9775 10.095,7.0859375 10.7309375,6.890625 L19.448125,4.2125 C20.1840625,3.98625 20.1840625,3.01375 19.448125,2.7875 Z M11.0246875,7.8465625 C10.133125,8.1203125 9.3734375,7.9690625 8.975,7.8465625 L4.443125,6.454375 L4,10 C4,11.1046875 6.68625,12 10,12 C13.31375,12 16,11.1046875 16,10 L15.556875,6.4540625 L11.0246875,7.8465625 Z" id="Shape"></path>
                </g>
            </g>
        </g>
    </g>
</svg>