<?xml version="1.0" encoding="UTF-8"?>
<svg width="20px" height="18px" viewBox="0 0 20 18" version="1.1" xmlns="http://www.w3.org/2000/svg" xmlns:xlink="http://www.w3.org/1999/xlink">
    <!-- Generator: Sketch 61.2 (89653) - https://sketch.com -->
    <title>Group 3</title>
    <desc>Created with Sketch.</desc>
    <g id="Symbols" stroke="none" stroke-width="1" fill="none" fill-rule="evenodd">
        <g id="nav/main/home/on" transform="translate(-11.000000, -12.000000)" fill="#FFFFFF" fill-rule="nonzero">
            <g id="Group-3" transform="translate(11.000000, 12.000000)">
                <path d="M19.5503321,10.0444665 L17.7089977,10.0444665 L17.7089977,16.673019 C17.7089977,17.1646367 17.4953501,17.7777778 16.6077212,17.7777778 L12.2026151,17.7777778 L12.2026151,11.1492253 L7.79750906,11.1492253 L7.79750906,17.7777778 L3.39240298,17.7777778 C2.5047741,17.7777778 2.29112646,17.1646367 2.29112646,16.673019 L2.29112646,10.0444665 L0.449792115,10.0444665 C-0.208771244,10.0444665 -0.0678078496,9.68652471 0.383715524,9.218107 L9.22035832,0.344684729 C9.43510725,0.121523462 9.71703404,0.0110475875 10.0000621,0 C10.2830902,0.0110475875 10.565017,0.120418704 10.7797659,0.344684729 L19.6153074,9.21700224 C20.0679321,9.68652471 20.2088954,10.0444665 19.5503321,10.0444665 Z" id="Path"></path>
            </g>
        </g>
    </g>
</svg>