<?xml version="1.0" encoding="UTF-8"?>
<svg width="14px" height="15px" viewBox="0 0 14 15" version="1.1" xmlns="http://www.w3.org/2000/svg" xmlns:xlink="http://www.w3.org/1999/xlink">
    <!-- Generator: Sketch 61.2 (89653) - https://sketch.com -->
    <title>logout-1-alternate</title>
    <desc>Created with Sketch.</desc>
    <g id="Symbols" stroke="none" stroke-width="1" fill="none" fill-rule="evenodd">
        <g id="nav/user_dropdown" transform="translate(-150.000000, -180.000000)" fill="#373737" fill-rule="nonzero">
            <g id="Group-25">
                <g id="Group-24" transform="translate(6.000000, 164.000000)">
                    <g id="Group-21" transform="translate(92.000000, 12.000000)">
                        <g id="logout-1-alternate" transform="translate(52.000000, 4.000000)">
                            <path d="M7.29166667,0.79 C7.93599887,0.79 8.45833333,1.31233446 8.45833333,1.95666667 L8.45833333,1.95666667 L8.45833333,3.70666667 C8.45833333,4.02883277 8.1971661,4.29 7.875,4.29 C7.5528339,4.29 7.29166667,4.02883277 7.29166667,3.70666667 L7.29166667,3.70666667 L7.29166667,2.24833333 C7.29166667,2.08725028 7.16108305,1.95666667 7,1.95666667 L7,1.95666667 L1.45833333,1.95666667 C1.29725028,1.95666667 1.16666667,2.08725028 1.16666667,2.24833333 L1.16666667,2.24833333 L1.16666667,12.7483333 C1.16666667,12.9094164 1.29725028,13.04 1.45833333,13.04 L1.45833333,13.04 L7,13.04 C7.16108305,13.04 7.29166667,12.9094164 7.29166667,12.7483333 L7.29166667,12.7483333 L7.29166667,11.29 C7.29166667,10.9678339 7.5528339,10.7066667 7.875,10.7066667 C8.1971661,10.7066667 8.45833333,10.9678339 8.45833333,11.29 L8.45833333,11.29 L8.45833333,13.04 C8.45833333,13.6843322 7.93599887,14.2066667 7.29166667,14.2066667 L7.29166667,14.2066667 L1.16666667,14.2066667 C0.522334459,14.2066667 -3.29958283e-13,13.6843322 -3.29958283e-13,13.04 L-3.29958283e-13,13.04 L-3.29958283e-13,1.95666667 C-3.29958283e-13,1.31233446 0.522334459,0.79 1.16666667,0.79 L1.16666667,0.79 Z M9.64172744,4.94268582 C9.8314189,4.84131373 10.0615028,4.85254752 10.2404167,4.97191667 L10.2404167,4.97191667 L13.7404167,7.30525 C13.9026738,7.41285936 14.0001309,7.59497938 14.0001309,7.79 C14.0001309,7.98502062 13.9026738,8.16714064 13.7404167,8.27533333 L13.7404167,8.27533333 L10.2404167,10.6086667 C10.1445477,10.6725919 10.0318938,10.7066667 9.91666667,10.7066667 C9.59633784,10.7022737 9.33772631,10.4436622 9.33333333,10.1233333 L9.33333333,10.1233333 L9.33333333,8.665 L4.08333333,8.665 C3.77072594,8.66500001 3.48186478,8.49822595 3.32556108,8.22750001 C3.16925738,7.95677406 3.16925738,7.62322594 3.32556108,7.35249999 C3.48186478,7.08177405 3.77072594,6.91499999 4.08333333,6.915 L4.08333333,6.915 L9.33333333,6.915 L9.33333333,5.45666667 C9.33351617,5.24158734 9.45203598,5.04405792 9.64172744,4.94268582 Z" id="Combined-Shape"></path>
                        </g>
                    </g>
                </g>
            </g>
        </g>
    </g>
</svg>