<?xml version="1.0" encoding="UTF-8"?>
<svg width="14px" height="14px" viewBox="0 0 14 14" version="1.1" xmlns="http://www.w3.org/2000/svg" xmlns:xlink="http://www.w3.org/1999/xlink">
    <!-- Generator: Sketch 61.2 (89653) - https://sketch.com -->
    <title>question-circle</title>
    <desc>Created with Sketch.</desc>
    <g id="Admin" stroke="none" stroke-width="1" fill="none" fill-rule="evenodd">
        <g id="Configure-Staff" transform="translate(-458.000000, -234.000000)" fill="#000000" fill-rule="nonzero">
            <g id="Group" transform="translate(335.000000, 147.000000)">
                <g id="Group-4" transform="translate(30.000000, 65.000000)">
                    <g id="Group-13" transform="translate(0.000000, 11.000000)">
                        <g id="question-circle" transform="translate(93.000000, 11.000000)">
                            <path d="M7.77777778,11.2037038 L7.77777778,9.53703696 C7.77777778,9.45601844 7.75173622,9.38946763 7.69965259,9.33738452 C7.64756948,9.28530089 7.58101867,9.25925933 7.50000015,9.25925933 L5.83333333,9.25925933 C5.75231481,9.25925933 5.685764,9.28530089 5.63368037,9.33738452 C5.58159726,9.38946763 5.5555557,9.45601844 5.5555557,9.53703696 L5.5555557,11.2037038 C5.5555557,11.2847223 5.58159726,11.3512731 5.63368037,11.4033567 C5.685764,11.4554399 5.75231481,11.4814814 5.83333333,11.4814814 L7.50000015,11.4814814 C7.58101867,11.4814814 7.64756948,11.4554399 7.69965259,11.4033567 C7.75173622,11.3512731 7.77777778,11.2847223 7.77777778,11.2037038 Z M9.99999985,5.37037044 C9.99999985,4.86111111 9.83940948,4.3894677 9.51822926,3.9554397 C9.19704852,3.52141222 8.79629644,3.18576378 8.315972,2.94849541 C7.83564807,2.71122704 7.34374978,2.59259259 6.84027763,2.59259259 C5.43402793,2.59259259 4.3605323,3.208912 3.61979178,4.44155081 C3.53298607,4.58043963 3.5561343,4.70196741 3.68923593,4.80613415 L4.83506956,5.67418963 C4.87557881,5.70891222 4.93055578,5.72627326 4.99999993,5.72627326 C5.09259281,5.72627326 5.16493081,5.69155067 5.21701393,5.62210652 C5.52372696,5.22858778 5.77256919,4.962384 5.96354163,4.82349519 C6.16030074,4.68460637 6.40914348,4.61516222 6.71006933,4.61516222 C6.98784696,4.61516222 7.23524304,4.69039356 7.45225704,4.84085674 C7.66927104,4.99131941 7.77777778,5.16203696 7.77777778,5.35300941 C7.77777778,5.57291674 7.71990748,5.74942148 7.60416689,5.88252311 C7.48842578,6.01562474 7.29166667,6.14583356 7.01388904,6.273148 C6.6493057,6.43518504 6.31510393,6.68547444 6.01128474,7.02401622 C5.70746504,7.362558 5.5555557,7.72569467 5.5555557,8.1134257 L5.5555557,8.42592593 C5.5555557,8.50694444 5.58159726,8.57349526 5.63368037,8.62557889 C5.685764,8.677662 5.75231481,8.70370356 5.83333333,8.70370356 L7.50000015,8.70370356 C7.58101867,8.70370356 7.64756948,8.677662 7.69965259,8.62557889 C7.75173622,8.57349526 7.77777778,8.50694444 7.77777778,8.42592593 C7.77777778,8.315972 7.83998859,8.17274319 7.9644097,7.99623844 C8.08883081,7.8197337 8.24652785,7.67650489 8.43749978,7.56655096 C8.62268504,7.46238422 8.7644677,7.37991904 8.86284726,7.31915489 C8.96122681,7.25839126 9.09432844,7.15711785 9.26215267,7.0153357 C9.42997689,6.87355304 9.55873852,6.73466422 9.64843756,6.59866874 C9.73813659,6.46267378 9.81915511,6.2876157 9.89149311,6.07349556 C9.96383111,5.85937489 9.99999985,5.62499985 9.99999985,5.37037044 Z M13.3333335,7.03703726 C13.3333335,8.24652785 13.035301,9.36197941 12.4392359,10.3833914 C11.8431714,11.4048034 11.0344329,12.2135419 10.0130209,12.8096064 C8.99160889,13.4056715 7.87615733,13.7037035 6.66666674,13.7037035 C5.45717615,13.7037035 4.34172459,13.4056715 3.32031259,12.8096064 C2.29890059,12.2135419 1.49016207,11.4048034 0.894097037,10.3833914 C0.298032519,9.36197941 0,8.24652785 0,7.03703726 C0,5.82754615 0.298032519,4.71209511 0.894097037,3.69068311 C1.49016207,2.66927059 2.29890059,1.86053259 3.32031259,1.26446756 C4.34172459,0.668402519 5.45717615,0.370370519 6.66666674,0.370370519 C7.87615733,0.370370519 8.99160889,0.668402519 10.0130209,1.26446756 C11.0344329,1.86053259 11.8431714,2.66927059 12.4392359,3.69068311 C13.035301,4.71209511 13.3333335,5.82754615 13.3333335,7.03703726 Z" id="Shape"></path>
                        </g>
                    </g>
                </g>
            </g>
        </g>
    </g>
</svg>