<?xml version="1.0" encoding="UTF-8"?>
<svg width="17px" height="16px" viewBox="0 0 17 16" version="1.1" xmlns="http://www.w3.org/2000/svg" xmlns:xlink="http://www.w3.org/1999/xlink">
    <!-- Generator: Sketch 61.2 (89653) - https://sketch.com -->
    <title>Group 6</title>
    <desc>Created with Sketch.</desc>
    <g id="Admin" stroke="none" stroke-width="1" fill="none" fill-rule="evenodd">
        <g id="Configure-Permissions" transform="translate(-396.000000, -622.000000)">
            <g id="Group-4" transform="translate(335.000000, 147.000000)">
                <g id="Group-20" transform="translate(30.000000, 96.000000)">
                    <g id="Group-14" transform="translate(0.000000, 326.000000)">
                        <g id="Group-13" transform="translate(0.000000, 36.000000)">
                            <g id="Group-5">
                                <g id="Group-9" transform="translate(18.874296, 15.000000)">
                                    <g id="Group-7">
                                        <g id="Group-6" transform="translate(13.000000, 2.000000)">
                                            <rect id="Rectangle" fill="#EAA23D" x="0" y="0" width="16" height="16" rx="3"></rect>
                                            <g id="eye" transform="translate(2.000000, 2.000000)" fill-rule="nonzero">
                                                <rect id="Rectangle" fill="#000000" opacity="0" x="0" y="0" width="12" height="12"></rect>
                                                <circle id="Oval" fill="#FFFFFF" cx="6" cy="6" r="1"></circle>
                                                <path d="M10.935,5.75 C10.615,5.195 8.855,2.41 5.865,2.5 C3.1,2.57 1.5,5 1.065,5.75 C0.975683603,5.90470054 0.975683603,6.09529946 1.065,6.25 C1.38,6.795 3.065,9.5 6.01,9.5 L6.135,9.5 C8.9,9.43 10.505,7 10.935,6.25 C11.0243164,6.09529946 11.0243164,5.90470054 10.935,5.75 Z M6,7.75 C5.03350169,7.75 4.25,6.96649831 4.25,6 C4.25,5.03350169 5.03350169,4.25 6,4.25 C6.96649831,4.25 7.75,5.03350169 7.75,6 C7.75,6.96649831 6.96649831,7.75 6,7.75 L6,7.75 Z" id="Shape" fill="#FFFFFF"></path>
                                            </g>
                                        </g>
                                    </g>
                                </g>
                            </g>
                        </g>
                    </g>
                </g>
            </g>
        </g>
    </g>
</svg>