<?xml version="1.0" encoding="UTF-8"?>
<svg width="17px" height="20px" viewBox="0 0 17 20" version="1.1" xmlns="http://www.w3.org/2000/svg" xmlns:xlink="http://www.w3.org/1999/xlink">
    <!-- Generator: Sketch 61.2 (89653) - https://sketch.com -->
    <title>read-human</title>
    <desc>Created with Sketch.</desc>
    <g id="Admin" stroke="none" stroke-width="1" fill="none" fill-rule="evenodd" stroke-linecap="round" stroke-linejoin="round">
        <g id="Configure-School" transform="translate(-889.000000, -415.000000)" stroke="#828A9D" stroke-width="1.5">
            <g id="Group" transform="translate(335.000000, 147.000000)">
                <g id="Group-8" transform="translate(30.000000, 217.000000)">
                    <g id="Group-21">
                        <g id="Group-15" transform="translate(0.000000, 40.000000)">
                            <g id="Group-4" transform="translate(510.000000, 0.000000)">
                                <g id="Group-7" transform="translate(15.000000, 11.000000)">
                                    <g id="read-human" transform="translate(-0.000000, 1.000000)">
                                        <path d="M2.25,14.43825 L2.25,15.18825 C2.23742791,15.4823268 2.4158311,15.7509917 2.69175,15.8535 L7.875,17.43825 L7.875,10.8135 L3.02025,9.03375 C2.82508319,8.98064602 2.61628315,9.02727459 2.46224914,9.15836097 C2.30821513,9.28944736 2.22879298,9.48810235 2.25,9.68925 L2.25,11.07225" id="Path"></path>
                                        <path d="M13.50975,14.325 L13.50975,15.19275 C13.5236398,15.486967 13.3451504,15.7562189 13.06875,15.858 L7.875,17.43825 L7.875,10.8135 L12.7395,9.03375 C12.9346668,8.98064602 13.1434669,9.02727459 13.2975009,9.15836097 C13.4515349,9.28944736 13.530957,9.48810235 13.50975,9.68925 L13.50975,11.18025" id="Path"></path>
                                        <path d="M3.36525,13.7685 C3.36525,14.1435 2.943,14.4435 2.427,14.43825 C1.3935,14.43375 0.55875,13.82625 0.562487415,13.08075 L0.562487415,12.40575 C0.562487415,11.661 1.40625,11.061 2.4375,11.0654749 C2.95425,11.0654749 3.37125,11.3715 3.36975403,11.7405 L3.36525,13.7685 Z" id="Path"></path>
                                        <path d="M11.81775,13.7685 C11.81775,14.1435 12.24,14.4435 12.7575,14.43825 C13.7925,14.43375 14.62875,13.82625 14.6250126,13.08075 L14.6250126,12.40575 C14.6250126,11.661 13.77975,11.061 12.74475,11.0654749 C12.228,11.0654749 11.8095,11.3715 11.811741,11.7405 L11.81775,13.7685 Z" id="Path"></path>
                                        <circle id="Oval" cx="7.884" cy="3.657" r="3.09375"></circle>
                                    </g>
                                </g>
                            </g>
                        </g>
                    </g>
                </g>
            </g>
        </g>
    </g>
</svg>