<?xml version="1.0" encoding="UTF-8"?>
<svg width="18px" height="18px" viewBox="0 0 18 18" version="1.1" xmlns="http://www.w3.org/2000/svg" xmlns:xlink="http://www.w3.org/1999/xlink">
    <!-- Generator: Sketch 61.2 (89653) - https://sketch.com -->
    <title>school-teacher</title>
    <desc>Created with Sketch.</desc>
    <g id="Admin" stroke="none" stroke-width="1" fill="none" fill-rule="evenodd">
        <g id="Configure-School" transform="translate(-379.000000, -416.000000)" fill="#828A9D" fill-rule="nonzero">
            <g id="Group" transform="translate(335.000000, 147.000000)">
                <g id="Group-8" transform="translate(30.000000, 217.000000)">
                    <g id="Group-21">
                        <g id="Group-15" transform="translate(0.000000, 40.000000)">
                            <g id="Group-4">
                                <g id="Group-7" transform="translate(14.000000, 11.000000)">
                                    <g id="school-teacher" transform="translate(0.000000, 1.000000)">
                                        <path d="M6.34104,6.80616 C6.28709978,6.77762595 6.25128938,6.72370643 6.24590891,6.66292165 C6.24052844,6.60213687 6.26631069,6.54276537 6.3144,6.5052 C7.40427256,5.65393411 7.83369885,4.2047517 7.38355107,2.89714213 C6.93340328,1.58953257 5.70292292,0.711777074 4.32,0.711777074 C2.93707708,0.711777074 1.70659672,1.58953257 1.25644893,2.89714213 C0.806301145,4.2047517 1.23572744,5.65393411 2.3256,6.5052 C2.37521322,6.54180459 2.40243233,6.60141443 2.3976,6.66288 C2.392508,6.7237326 2.35702958,6.77789812 2.30328,6.80688 C0.888841303,7.55353922 0.00268605287,9.02058461 6.39488462e-16,10.62 L6.39488462e-16,13.14 C6.39488462e-16,13.537645 0.32235498,13.86 0.72,13.86 L1.52712,13.86 C1.71470783,13.8593371 1.8713637,14.0028339 1.88712,14.18976 L2.16,17.50464 C2.18294516,17.7854783 2.41822902,18.001312 2.7,18.0000059 L5.94,18.0000059 C6.22177098,18.001312 6.45705484,17.7854783 6.48,17.50464 L6.75648,14.19264 C6.7722363,14.0057139 6.92889217,13.8622171 7.11648,13.86288 L7.92,13.86288 C8.31764502,13.86288 8.64,13.540525 8.64,13.14288 L8.64,10.62288 C8.6394933,9.02310568 7.75494738,7.55458771 6.34104,6.80616 Z M2.592,3.46896 C2.60727538,3.41541183 2.64647418,3.37194833 2.69816605,3.35124341 C2.74985793,3.33053849 2.80822224,3.33492359 2.85624,3.36312 C3.51766489,3.75383428 4.27179395,3.95995791 5.04,3.96 C5.32698069,3.95950265 5.61314136,3.92934238 5.89392,3.87 C5.94863185,3.85899942 6.0053723,3.87358225 6.048,3.9096 C6.09008912,3.94528287 6.11323052,3.99848149 6.11064,4.0536 C6.07981851,4.74641708 5.65295578,5.3596149 5.01393139,5.62904634 C4.374907,5.89847778 3.63786817,5.77601501 3.120309,5.31441131 C2.60274983,4.85280761 2.39712053,4.13451801 2.592,3.46896 L2.592,3.46896 Z M7.2,12.06 C7.2,12.2588225 7.03882251,12.42 6.84,12.42 L1.8,12.42 C1.60117749,12.42 1.44,12.2588225 1.44,12.06 L1.44,10.62 C1.44304556,9.40311621 2.21226511,8.32009431 3.36024,7.9164 C3.41505729,7.89633979 3.47624862,7.90469632 3.52368,7.93872 C3.57054788,7.97187328 3.59887596,8.02532249 3.6,8.08272 L3.6,10.61712 C3.6,11.014765 3.92235498,11.33712 4.32,11.33712 C4.71764502,11.33712 5.04,11.014765 5.04,10.61712 L5.04,8.0856 C5.04112404,8.02820249 5.06945212,7.97475328 5.11632,7.9416 C5.16402144,7.90757015 5.22542444,7.8992215 5.28048,7.91928 C6.42717737,8.32286364 7.19584516,9.40436134 7.2,10.62 L7.2,12.06 Z" id="Shape"></path>
                                        <path d="M15.12,0.72 L9,0.72 C8.60235498,0.72 8.28,1.04235498 8.28,1.44 C8.28,1.83764502 8.60235498,2.16 9,2.16 L15.12,2.16 C15.517645,2.16 15.84,2.48235498 15.84,2.88 L15.84,12.24 C15.84,12.637645 15.517645,12.96 15.12,12.96 L10.8,12.96 C10.402355,12.96 10.08,13.282355 10.08,13.68 C10.08,14.077645 10.402355,14.4 10.8,14.4 L15.12,14.4 C16.3129351,14.4 17.28,13.4329351 17.28,12.24 L17.28,2.88 C17.28,1.68706494 16.3129351,0.72 15.12,0.72 Z" id="Path"></path>
                                    </g>
                                </g>
                            </g>
                        </g>
                    </g>
                </g>
            </g>
        </g>
    </g>
</svg>