<?xml version="1.0" encoding="UTF-8"?>
<svg width="126px" height="21px" viewBox="0 0 126 21" version="1.1" xmlns="http://www.w3.org/2000/svg" xmlns:xlink="http://www.w3.org/1999/xlink">
    <!-- Generator: sketchtool 61.2 (101010) - https://sketch.com -->
    <title>F0F499DA-DB34-42DD-B4F7-A7CF7AAB807E@2x</title>
    <desc>Created with sketchtool.</desc>
    <defs>
        <linearGradient x1="0%" y1="18%" x2="100%" y2="82%" id="linearGradient-1">
            <stop stop-color="#5CC26B" offset="0%"></stop>
            <stop stop-color="#34A245" offset="100%"></stop>
        </linearGradient>
    </defs>
    <g id="Admin" stroke="none" stroke-width="1" fill="none" fill-rule="evenodd">
        <g id="Login" transform="translate(-657.000000, -185.000000)">
            <g id="Group-15" transform="translate(657.000000, 185.000000)">
                <g id="SchoolApp-Default">
                    <path d="M39.806,16.464 C40.526,16.464 41.225,16.32 41.903,16.032 C42.581,15.744 43.136,15.309 43.568,14.727 C44,14.145 44.216,13.434 44.216,12.594 C44.216,11.574 43.919,10.749 43.325,10.119 C42.731,9.489 41.876,8.982 40.76,8.598 L40.76,8.598 L39.95,8.328 C39.206,8.076 38.672,7.815 38.348,7.545 C38.024,7.275 37.862,6.948 37.862,6.564 C37.862,6.168 38.033,5.847 38.375,5.601 C38.717,5.355 39.152,5.232 39.68,5.232 C40.196,5.232 40.619,5.367 40.949,5.637 C41.279,5.907 41.51,6.24 41.642,6.636 L41.642,6.636 L43.784,5.736 C43.532,5.004 43.07,4.365 42.398,3.819 C41.726,3.273 40.808,3 39.644,3 C38.84,3 38.12,3.159 37.484,3.477 C36.848,3.795 36.356,4.23 36.008,4.782 C35.66,5.334 35.486,5.946 35.486,6.618 C35.486,7.518 35.78,8.265 36.368,8.859 C36.956,9.453 37.664,9.894 38.492,10.182 L38.492,10.182 L39.284,10.47 C40.22,10.818 40.871,11.145 41.237,11.451 C41.603,11.757 41.786,12.15 41.786,12.63 C41.786,13.11 41.594,13.485 41.21,13.755 C40.826,14.025 40.364,14.16 39.824,14.16 C39.176,14.16 38.636,13.956 38.204,13.548 C37.772,13.14 37.466,12.594 37.286,11.91 L37.286,11.91 L35,12.81 C35.348,13.974 35.954,14.874 36.818,15.51 C37.682,16.146 38.678,16.464 39.806,16.464 Z M50.516,16.464 C51.524,16.464 52.394,16.242 53.126,15.798 C53.858,15.354 54.422,14.73 54.818,13.926 L54.818,13.926 L52.676,12.99 C52.232,13.854 51.512,14.286 50.516,14.286 C49.796,14.286 49.205,14.04 48.743,13.548 C48.281,13.056 48.05,12.402 48.05,11.586 C48.05,10.782 48.281,10.134 48.743,9.642 C49.205,9.15 49.796,8.904 50.516,8.904 C51.5,8.904 52.184,9.312 52.568,10.128 L52.568,10.128 L54.728,9.228 C54.404,8.424 53.876,7.803 53.144,7.365 C52.412,6.927 51.536,6.708 50.516,6.708 C49.592,6.708 48.764,6.918 48.032,7.338 C47.3,7.758 46.727,8.337 46.313,9.075 C45.899,9.813 45.692,10.65 45.692,11.586 C45.692,12.522 45.899,13.362 46.313,14.106 C46.727,14.85 47.3,15.429 48.032,15.843 C48.764,16.257 49.592,16.464 50.516,16.464 Z M58.868,16.176 L58.868,11.514 C58.868,10.782 59.069,10.164 59.471,9.66 C59.873,9.156 60.386,8.904 61.01,8.904 C61.538,8.904 61.961,9.066 62.279,9.39 C62.597,9.714 62.756,10.17 62.756,10.758 L62.756,10.758 L62.756,16.176 L65.114,16.176 L65.114,10.47 C65.114,9.294 64.817,8.373 64.223,7.707 C63.629,7.041 62.774,6.708 61.658,6.708 C61.07,6.708 60.524,6.84 60.02,7.104 C59.516,7.368 59.132,7.716 58.868,8.148 L58.868,8.148 L58.724,8.148 L58.868,6.546 L58.868,3.288 L56.51,3.288 L56.51,16.176 L58.868,16.176 Z M71.738,16.464 C72.674,16.464 73.514,16.251 74.258,15.825 C75.002,15.399 75.581,14.817 75.995,14.079 C76.409,13.341 76.616,12.51 76.616,11.586 C76.616,10.674 76.409,9.846 75.995,9.102 C75.581,8.358 75.002,7.773 74.258,7.347 C73.514,6.921 72.674,6.708 71.738,6.708 C70.79,6.708 69.944,6.921 69.2,7.347 C68.456,7.773 67.877,8.358 67.463,9.102 C67.049,9.846 66.842,10.674 66.842,11.586 C66.842,12.51 67.049,13.341 67.463,14.079 C67.877,14.817 68.456,15.399 69.2,15.825 C69.944,16.251 70.79,16.464 71.738,16.464 Z M71.738,14.286 C71.282,14.286 70.862,14.178 70.478,13.962 C70.094,13.746 69.785,13.431 69.551,13.017 C69.317,12.603 69.2,12.126 69.2,11.586 C69.2,11.046 69.317,10.572 69.551,10.164 C69.785,9.756 70.094,9.444 70.478,9.228 C70.862,9.012 71.282,8.904 71.738,8.904 C72.194,8.904 72.614,9.012 72.998,9.228 C73.382,9.444 73.688,9.756 73.916,10.164 C74.144,10.572 74.258,11.046 74.258,11.586 C74.258,12.138 74.144,12.618 73.916,13.026 C73.688,13.434 73.382,13.746 72.998,13.962 C72.614,14.178 72.194,14.286 71.738,14.286 Z M82.808,16.464 C83.744,16.464 84.584,16.251 85.328,15.825 C86.072,15.399 86.651,14.817 87.065,14.079 C87.479,13.341 87.686,12.51 87.686,11.586 C87.686,10.674 87.479,9.846 87.065,9.102 C86.651,8.358 86.072,7.773 85.328,7.347 C84.584,6.921 83.744,6.708 82.808,6.708 C81.86,6.708 81.014,6.921 80.27,7.347 C79.526,7.773 78.947,8.358 78.533,9.102 C78.119,9.846 77.912,10.674 77.912,11.586 C77.912,12.51 78.119,13.341 78.533,14.079 C78.947,14.817 79.526,15.399 80.27,15.825 C81.014,16.251 81.86,16.464 82.808,16.464 Z M82.808,14.286 C82.352,14.286 81.932,14.178 81.548,13.962 C81.164,13.746 80.855,13.431 80.621,13.017 C80.387,12.603 80.27,12.126 80.27,11.586 C80.27,11.046 80.387,10.572 80.621,10.164 C80.855,9.756 81.164,9.444 81.548,9.228 C81.932,9.012 82.352,8.904 82.808,8.904 C83.264,8.904 83.684,9.012 84.068,9.228 C84.452,9.444 84.758,9.756 84.986,10.164 C85.214,10.572 85.328,11.046 85.328,11.586 C85.328,12.138 85.214,12.618 84.986,13.026 C84.758,13.434 84.452,13.746 84.068,13.962 C83.684,14.178 83.264,14.286 82.808,14.286 Z M91.754,16.176 L91.754,3.288 L89.396,3.288 L89.396,16.176 L91.754,16.176 Z" id="SchoolApp" fill="#000000" fill-rule="nonzero"></path>
                    <path d="M6.25,0.000235287197 C8.46590909,0.000235287197 10.8522727,0.470927326 12.5,1.76488927 L12.5,1.76488927 L12.5,17.6467751 C14.0340909,16.6469221 16.8181818,15.8821211 18.75,15.8821211 C20.1136364,15.8821211 21.4772727,16.0587042 22.7272727,16.4703391 L22.7272727,16.4703391 L22.7272727,0.588453281 C23.5795455,0.882562278 24.3181818,1.23561072 25,1.76488927 L25,1.76488927 L25,18.9335608 C25,19.2276698 24.7159091,19.5217788 24.4318182,19.5217788 C24.3181818,19.5217788 24.2613636,19.5441311 24.1477273,19.4853093 C22.5568182,18.6029823 20.625,18.235346 18.75,18.235346 C16.8181818,18.235346 14.0340909,19.0000294 12.5,20 C10.8522727,18.7059204 8.46590909,18.235346 6.25,18.235346 C4.60227273,18.235346 2.38636364,18.7573307 0.852272727,19.5220141 C0.738636364,19.5220141 0.681818182,19.5949531 0.568181818,19.5949531 C0.284090909,19.5949531 0,19.3008441 0,19.0067351 L0,19.0067351 L0,1.76465398 C1.64772727,0.470574395 4.03409091,0 6.25,0 Z M20.4369429,5.4337814 C20.7438274,5.62712958 20.8382895,6.03668484 20.6465455,6.34813734 L17.3643385,11.6866426 C17.250608,11.8728474 17.0536943,11.9890468 16.8379823,11.9990475 C16.8276431,12 16.8182439,12 16.8079048,12 C16.6034718,12 16.4098479,11.9033259 16.2857782,11.7366464 L14.6066079,9.48837852 C14.3880761,9.19645134 14.4449413,8.78070512 14.7334973,8.55925954 C15.0225233,8.33686151 15.4327992,8.39543744 15.651331,8.68784085 L16.7562091,10.1660496 L19.534148,5.64570243 C19.7254221,5.3352024 20.1295885,5.23995699 20.4369429,5.4337814 Z" id="Combined-Shape" fill="url(#linearGradient-1)"></path>
                    <path d="M110.78,6.708 C111.596,6.708 112.34,6.918 113.012,7.338 C113.684,7.758 114.212,8.34 114.596,9.084 C114.98,9.828 115.172,10.662 115.172,11.586 C115.172,12.522 114.98,13.359 114.596,14.097 C114.212,14.835 113.684,15.414 113.012,15.834 C112.34,16.254 111.596,16.464 110.78,16.464 C110.084,16.464 109.457,16.305 108.899,15.987 C108.41075,15.70875 108.030453,15.3776719 107.758109,14.9937656 L107.648,14.826 L107.576,14.826 L107.648,16.086 L107.648,20.064 L106.118,20.064 L106.118,6.996 L107.576,6.996 L107.576,8.364 L107.648,8.364 L107.758109,8.19201563 C108.030453,7.79892188 108.41075,7.46325 108.899,7.185 C109.457,6.867 110.084,6.708 110.78,6.708 Z M121.364,6.708 C122.18,6.708 122.924,6.918 123.596,7.338 C124.268,7.758 124.796,8.34 125.18,9.084 C125.564,9.828 125.756,10.662 125.756,11.586 C125.756,12.522 125.564,13.359 125.18,14.097 C124.796,14.835 124.268,15.414 123.596,15.834 C122.924,16.254 122.18,16.464 121.364,16.464 C120.668,16.464 120.041,16.305 119.483,15.987 C118.99475,15.70875 118.614453,15.3776719 118.342109,14.9937656 L118.232,14.826 L118.16,14.826 L118.232,16.086 L118.232,20.064 L116.702,20.064 L116.702,6.996 L118.16,6.996 L118.16,8.364 L118.232,8.364 L118.342109,8.19201563 C118.614453,7.79892188 118.99475,7.46325 119.483,7.185 C120.041,6.867 120.668,6.708 121.364,6.708 Z M99.8,3.288 L104.696,16.176 L103.022,16.176 L101.726,12.63 L96.164,12.63 L94.868,16.176 L93.194,16.176 L98.072,3.288 L99.8,3.288 Z M110.6,8.094 C110.072,8.094 109.574,8.238 109.106,8.526 C108.638,8.814 108.266,9.222 107.99,9.75 C107.714,10.278 107.576,10.89 107.576,11.586 C107.576,12.282 107.714,12.894 107.99,13.422 C108.266,13.95 108.638,14.358 109.106,14.646 C109.574,14.934 110.072,15.078 110.6,15.078 C111.128,15.078 111.626,14.934 112.094,14.646 C112.562,14.358 112.937,13.947 113.219,13.413 C113.501,12.879 113.642,12.27 113.642,11.586 C113.642,10.902 113.501,10.293 113.219,9.759 C112.937,9.225 112.562,8.814 112.094,8.526 C111.626,8.238 111.128,8.094 110.6,8.094 Z M121.184,8.094 C120.656,8.094 120.158,8.238 119.69,8.526 C119.222,8.814 118.85,9.222 118.574,9.75 C118.298,10.278 118.16,10.89 118.16,11.586 C118.16,12.282 118.298,12.894 118.574,13.422 C118.85,13.95 119.222,14.358 119.69,14.646 C120.158,14.934 120.656,15.078 121.184,15.078 C121.712,15.078 122.21,14.934 122.678,14.646 C123.146,14.358 123.521,13.947 123.803,13.413 C124.085,12.879 124.226,12.27 124.226,11.586 C124.226,10.902 124.085,10.293 123.803,9.759 C123.521,9.225 123.146,8.814 122.678,8.526 C122.21,8.238 121.712,8.094 121.184,8.094 Z M98.972,5.16 L98.9,5.16 L98.396,6.546 L96.686,11.19 L101.204,11.19 L99.494,6.546 L98.972,5.16 Z" id="Combined-Shape" fill="#676C7A"></path>
                </g>
            </g>
        </g>
    </g>
</svg>