<?xml version="1.0" encoding="UTF-8"?>
<svg width="25px" height="20px" viewBox="0 0 25 20" version="1.1" xmlns="http://www.w3.org/2000/svg" xmlns:xlink="http://www.w3.org/1999/xlink">
    <!-- Generator: Sketch 61.2 (89653) - https://sketch.com -->
    <title>Combined Shape</title>
    <desc>Created with Sketch.</desc>
    <g id="Symbols" stroke="none" stroke-width="1" fill="none" fill-rule="evenodd">
        <g id="nav/main" transform="translate(-20.000000, -18.000000)" fill="#FFFFFF">
            <g id="Group-2">
                <g id="Group" transform="translate(20.000000, 18.000000)">
                    <path d="M6.25,0.000235287197 C8.46590909,0.000235287197 10.8522727,0.470927326 12.5,1.76488927 L12.5,1.76488927 L12.5,17.6467751 C14.0340909,16.6469221 16.8181818,15.8821211 18.75,15.8821211 C20.1136364,15.8821211 21.4772727,16.0587042 22.7272727,16.4703391 L22.7272727,16.4703391 L22.7272727,0.588453281 C23.5795455,0.882562278 24.3181818,1.23561072 25,1.76488927 L25,1.76488927 L25,18.9335608 C25,19.2276698 24.7159091,19.5217788 24.4318182,19.5217788 C24.3181818,19.5217788 24.2613636,19.5441311 24.1477273,19.4853093 C22.5568182,18.6029823 20.625,18.235346 18.75,18.235346 C16.8181818,18.235346 14.0340909,19.0000294 12.5,20 C10.8522727,18.7059204 8.46590909,18.235346 6.25,18.235346 C4.60227273,18.235346 2.38636364,18.7573307 0.852272727,19.5220141 C0.738636364,19.5220141 0.681818182,19.5949531 0.568181818,19.5949531 C0.284090909,19.5949531 0,19.3008441 0,19.0067351 L0,19.0067351 L0,1.76465398 C1.64772727,0.470574395 4.03409091,0 6.25,0 Z M20.4369429,5.4337814 C20.7438274,5.62712958 20.8382895,6.03668484 20.6465455,6.34813734 L17.3643385,11.6866426 C17.250608,11.8728474 17.0536943,11.9890468 16.8379823,11.9990475 C16.8276431,12 16.8182439,12 16.8079048,12 C16.6034718,12 16.4098479,11.9033259 16.2857782,11.7366464 L14.6066079,9.48837852 C14.3880761,9.19645134 14.4449413,8.78070512 14.7334973,8.55925954 C15.0225233,8.33686151 15.4327992,8.39543744 15.651331,8.68784085 L16.7562091,10.1660496 L19.534148,5.64570243 C19.7254221,5.3352024 20.1295885,5.23995699 20.4369429,5.4337814 Z" id="Combined-Shape"></path>
                </g>
            </g>
        </g>
    </g>
</svg>