<?xml version="1.0" encoding="UTF-8"?>
<svg width="20px" height="20px" viewBox="0 0 20 20" version="1.1" xmlns="http://www.w3.org/2000/svg" xmlns:xlink="http://www.w3.org/1999/xlink">
    <!-- Generator: Sketch 61.2 (89653) - https://sketch.com -->
    <title>task-list-multiple</title>
    <desc>Created with Sketch.</desc>
    <g id="Admin" stroke="none" stroke-width="1" fill="none" fill-rule="evenodd" stroke-linecap="round" stroke-linejoin="round">
        <g id="Configure-School" transform="translate(-378.000000, -471.000000)" stroke="#828A9D" stroke-width="1.5">
            <g id="Group" transform="translate(335.000000, 147.000000)">
                <g id="Group-8" transform="translate(30.000000, 217.000000)">
                    <g id="Group-21">
                        <g id="Group-15" transform="translate(0.000000, 40.000000)">
                            <g id="Group-4" transform="translate(0.000000, 56.000000)">
                                <g id="Group-7" transform="translate(14.000000, 11.000000)">
                                    <g id="task-list-multiple" transform="translate(0.000000, 1.000000)">
                                        <rect id="Rectangle" x="7.3125" y="5.07075" width="10.125" height="12.375" rx="1"></rect>
                                        <path d="M7.3125,15.19575 L5.0625,15.19575 C4.44117966,15.19575 3.9375,14.6920703 3.9375,14.07075 L3.9375,3.94575 C3.9375,3.32442966 4.44117966,2.82075 5.0625,2.82075 L12.9375,2.82075 C13.5588203,2.82075 14.0625,3.32442966 14.0625,3.94575 L14.0625,5.07075" id="Path"></path>
                                        <path d="M3.9375,12.94575 L1.6875,12.94575 C1.06617966,12.94575 0.5625,12.4420703 0.5625,11.82075 L0.5625,1.69575 C0.5625,1.07442966 1.06617966,0.57075 1.6875,0.57075 L9.5625,0.57075 C10.1838203,0.57075 10.6875,1.07442966 10.6875,1.69575 L10.6875,2.82075" id="Path"></path>
                                        <line x1="12.9375" y1="8.44575" x2="15.1875" y2="8.44575" id="Path"></line>
                                        <polyline id="Path" points="9.5625 7.88325 10.125 8.44575 11.25 7.32075"></polyline>
                                        <line x1="12.9375" y1="11.82075" x2="15.1875" y2="11.82075" id="Path"></line>
                                        <polyline id="Path" points="9.5625 11.25825 10.125 11.82075 11.25 10.69575"></polyline>
                                        <line x1="12.9375" y1="15.19575" x2="15.1875" y2="15.19575" id="Path"></line>
                                        <polyline id="Path" points="9.5625 14.63325 10.125 15.19575 11.25 14.07075"></polyline>
                                    </g>
                                </g>
                            </g>
                        </g>
                    </g>
                </g>
            </g>
        </g>
    </g>
</svg>